<svg width="62" height="56" viewBox="0 0 62 56" fill="none" xmlns="http://www.w3.org/2000/svg">
<g style="mix-blend-mode:color-dodge">
<path d="M45.1172 52.9238C45.1172 51.7845 45.1855 50.6452 45.3223 49.5059C45.5046 48.3665 45.6868 47.25 45.8691 46.1562C46.097 45.0169 46.2793 43.8776 46.416 42.7383C46.5983 41.5534 46.6895 40.3685 46.6895 39.1836C45.1855 39.1836 43.8867 39.252 42.793 39.3887C41.6992 39.5254 40.6283 39.6621 39.5801 39.7988C38.5319 39.9355 37.4154 40.0495 36.2305 40.1406C35.0456 40.1862 33.61 40.1634 31.9238 40.0723C30.6934 41.4395 29.2806 42.8978 27.6855 44.4473C26.1361 45.9967 24.4727 47.4323 22.6953 48.7539C20.918 50.0755 19.0495 51.1921 17.0898 52.1035C15.1302 52.9694 13.1478 53.4023 11.1426 53.4023C9.77539 53.4023 8.45378 53.1745 7.17773 52.7188C5.94727 52.263 4.85352 51.625 3.89648 50.8047C2.93945 49.9844 2.1875 49.0046 1.64062 47.8652C1.09375 46.6803 0.820312 45.3815 0.820312 43.9688C0.820312 43.2396 0.934245 42.6927 1.16211 42.3281C1.43555 41.918 1.98242 41.7129 2.80273 41.7129C3.21289 41.7129 3.57747 42.1003 3.89648 42.875C4.21549 43.6042 4.62565 44.4473 5.12695 45.4043C5.67383 46.3158 6.35742 47.1589 7.17773 47.9336C7.99805 48.6628 9.11458 49.0273 10.5273 49.0273C12.2591 49.0273 13.9453 48.7083 15.5859 48.0703C17.2721 47.3867 18.8672 46.5436 20.3711 45.541C21.9206 44.4928 23.3561 43.3307 24.6777 42.0547C26.0449 40.7786 27.2754 39.5254 28.3691 38.2949C28.2324 37.1556 27.8223 36.3125 27.1387 35.7656C26.4551 35.2188 25.7259 34.6719 24.9512 34.125C24.222 33.5781 23.5612 32.849 22.9688 31.9375C22.3763 31.026 22.0801 29.5905 22.0801 27.6309C22.0801 24.8509 22.9232 22.6862 24.6094 21.1367C26.2956 19.5417 28.597 18.7441 31.5137 18.7441C32.3796 18.7441 33.2227 18.8353 34.043 19.0176C34.9089 19.1999 35.7747 19.4277 36.6406 19.7012C37.5065 19.929 38.3496 20.1341 39.1699 20.3164C40.0358 20.4987 40.9017 20.5898 41.7676 20.5898C42.3145 20.5898 42.7474 20.5215 43.0664 20.3848C43.431 20.248 43.75 20.043 44.0234 19.7695C44.2969 19.4961 44.5931 19.1315 44.9121 18.6758C45.2311 18.2201 45.6413 17.6732 46.1426 17.0352C46.416 16.6706 46.8262 16.1009 47.373 15.3262C47.9655 14.5059 48.6035 13.6172 49.2871 12.6602C49.9707 11.6576 50.6999 10.6094 51.4746 9.51562C52.2493 8.42188 52.9785 7.3737 53.6621 6.37109C54.3457 5.36849 54.9609 4.47982 55.5078 3.70508C56.0547 2.93034 56.4421 2.33789 56.6699 1.92773C57.1712 1.51758 57.627 1.26693 58.0371 1.17578C58.4473 1.03906 58.9258 0.970703 59.4727 0.970703C60.0195 0.970703 60.4297 1.17578 60.7031 1.58594C60.9766 1.95052 61.1361 2.40625 61.1816 2.95312C61.2728 3.5 61.2956 4.06966 61.25 4.66211C61.25 5.20898 61.25 5.64193 61.25 5.96094C61.25 6.09766 61.25 6.32552 61.25 6.64453C61.25 6.91797 61.2272 7.21419 61.1816 7.5332C61.1816 7.85221 61.1816 8.17122 61.1816 8.49023C61.1816 8.76367 61.1816 8.94596 61.1816 9.03711C61.0449 9.49284 60.8171 10.1764 60.498 11.0879C60.2246 11.9993 59.9056 13.0475 59.541 14.2324C59.1764 15.3717 58.7891 16.5794 58.3789 17.8555C58.0143 19.1315 57.6497 20.362 57.2852 21.5469C56.9661 22.7318 56.6699 23.7799 56.3965 24.6914C56.123 25.6029 55.9408 26.2865 55.8496 26.7422C55.804 26.9701 55.7357 27.3346 55.6445 27.8359C55.5534 28.3372 55.4622 28.8841 55.3711 29.4766C55.2799 30.0234 55.1888 30.5475 55.0977 31.0488C55.0065 31.5501 54.9609 31.8919 54.9609 32.0742C55.3711 32.1654 55.7812 32.3021 56.1914 32.4844C56.6016 32.6667 56.8066 32.9629 56.8066 33.373C56.8066 33.8288 56.6243 34.1934 56.2598 34.4668C55.9408 34.7402 55.5534 34.9909 55.0977 35.2188C54.6419 35.4466 54.209 35.7201 53.7988 36.0391C53.4342 36.3581 53.2292 36.8138 53.1836 37.4062C53.0924 37.9531 52.9329 38.9557 52.7051 40.4141C52.4772 41.8268 52.2038 43.3535 51.8848 44.9941C51.6113 46.5892 51.3379 48.0931 51.0645 49.5059C50.8366 50.9186 50.6543 51.8984 50.5176 52.4453C50.472 52.582 50.3809 52.8327 50.2441 53.1973C50.1074 53.5618 49.9479 53.9264 49.7656 54.291C49.5833 54.6556 49.401 54.9974 49.2188 55.3164C49.0365 55.6354 48.8997 55.8633 48.8086 56C47.7148 55.7721 46.8262 55.4987 46.1426 55.1797C45.459 54.8151 45.1172 54.0632 45.1172 52.9238ZM43.9551 26.6738C43.4082 26.6738 42.6335 27.0612 41.6309 27.8359C40.6738 28.6107 39.7168 29.5221 38.7598 30.5703C37.8027 31.5729 36.9596 32.5983 36.2305 33.6465C35.5013 34.6491 35.1367 35.401 35.1367 35.9023C35.4102 35.9023 35.9342 35.9023 36.709 35.9023C37.5293 35.8568 38.3724 35.834 39.2383 35.834C40.1497 35.7884 40.9928 35.7428 41.7676 35.6973C42.5879 35.6517 43.1576 35.6289 43.4766 35.6289C43.6589 35.6289 43.9323 35.5833 44.2969 35.4922C44.707 35.401 45.0944 35.3099 45.459 35.2188C45.8236 35.1276 46.1426 35.0365 46.416 34.9453C46.735 34.8542 46.9173 34.7858 46.9629 34.7402C47.0085 34.7402 47.0312 34.6035 47.0312 34.3301C47.0312 34.0111 47.0312 33.7604 47.0312 33.5781C47.0312 33.2135 46.9629 32.6439 46.8262 31.8691C46.735 31.0944 46.5527 30.3197 46.2793 29.5449C46.0514 28.7702 45.7324 28.1094 45.3223 27.5625C44.9577 26.9701 44.502 26.6738 43.9551 26.6738ZM24.7461 26.7422C24.7461 27.3802 24.974 28.1094 25.4297 28.9297C25.8854 29.75 26.4551 30.5247 27.1387 31.2539C27.8223 31.9831 28.5514 32.5983 29.3262 33.0996C30.1009 33.6009 30.8301 33.8516 31.5137 33.8516C32.1517 33.8516 32.9036 33.4642 33.7695 32.6895C34.6354 31.9147 35.4557 31.026 36.2305 30.0234C37.0508 28.9753 37.7344 27.9727 38.2812 27.0156C38.8281 26.0586 39.1016 25.3978 39.1016 25.0332C39.1016 24.2585 38.8281 23.6888 38.2812 23.3242C37.7799 22.9141 37.1647 22.6406 36.4355 22.5039C35.752 22.3216 35.0228 22.2305 34.248 22.2305C33.4733 22.2305 32.8353 22.2305 32.334 22.2305C31.696 22.2305 30.9212 22.2988 30.0098 22.4355C29.1439 22.5267 28.3236 22.7318 27.5488 23.0508C26.7741 23.3698 26.1133 23.8255 25.5664 24.418C25.0195 25.0104 24.7461 25.7852 24.7461 26.7422ZM45.2539 23.2559C46.2565 24.4408 47.1908 25.7168 48.0566 27.084C48.9225 28.4512 49.7428 29.8411 50.5176 31.2539L56.6016 9.37891L45.2539 23.2559Z" fill="#00EDED"/>
</g>
</svg>
